<?xml version="1.0" encoding="UTF-8"?>
<svg xmlns="http://www.w3.org/2000/svg" xmlns:xlink="http://www.w3.org/1999/xlink" width="93px" height="20px" viewBox="0 0 93 20" version="1.1">
<g id="surface1">
<path style=" stroke:none;fill-rule:nonzero;fill:rgb(100%,0%,0%);fill-opacity:1;" d="M 29.042969 3.160156 C 28.695312 1.933594 27.695312 0.976562 26.414062 0.644531 C 24.109375 0.0429688 14.832031 0.0429688 14.832031 0.0429688 C 14.832031 0.0429688 5.558594 0.0625 3.253906 0.664062 C 1.972656 0.996094 0.972656 1.953125 0.625 3.179688 C -0.0703125 7.101562 -0.34375 13.074219 0.644531 16.839844 C 0.992188 18.066406 1.992188 19.023438 3.273438 19.355469 C 5.578125 19.957031 14.851562 19.957031 14.851562 19.957031 C 14.851562 19.957031 24.128906 19.957031 26.433594 19.355469 C 27.714844 19.023438 28.714844 18.066406 29.0625 16.839844 C 29.796875 12.914062 30.023438 6.941406 29.042969 3.160156 Z M 29.042969 3.160156 "/>
<path style=" stroke:none;fill-rule:nonzero;fill:rgb(100%,100%,100%);fill-opacity:1;" d="M 11.882812 14.265625 L 19.578125 10 L 11.882812 5.734375 Z M 11.882812 14.265625 "/>
<path style=" stroke:none;fill-rule:nonzero;fill:rgb(100%,100%,100%);fill-opacity:1;" d="M 89.230469 5.824219 C 90.238281 5.824219 91 6.007812 91.53125 6.351562 C 92.066406 6.699219 92.449219 7.246094 92.675781 7.996094 C 92.90625 8.742188 93 9.761719 93 11.078125 L 93 13.210938 L 88.105469 13.210938 L 88.105469 13.867188 L 88.179688 15.671875 C 88.238281 16.074219 88.332031 16.363281 88.484375 16.546875 C 88.636719 16.730469 88.886719 16.820312 89.210938 16.820312 C 89.648438 16.820312 89.953125 16.65625 90.105469 16.328125 C 90.277344 16 90.351562 15.453125 90.371094 14.707031 L 92.90625 14.851562 C 92.921875 14.960938 92.921875 15.105469 92.921875 15.289062 C 92.921875 16.4375 92.601562 17.292969 91.933594 17.859375 C 91.265625 18.425781 90.351562 18.71875 89.152344 18.71875 C 87.703125 18.71875 86.695312 18.28125 86.125 17.421875 C 85.550781 16.566406 85.246094 15.214844 85.246094 13.410156 L 85.246094 11.203125 C 85.3125 8.105469 85.882812 5.832031 89.230469 5.824219 Z M 54.011719 6.0625 L 54.011719 15.199219 C 54.011719 15.746094 54.070312 16.144531 54.203125 16.382812 C 54.472656 16.890625 55.175781 16.761719 55.554688 16.511719 C 55.773438 16.367188 55.953125 16.171875 56.070312 15.945312 L 56.070312 6.0625 L 58.984375 6.0625 L 58.984375 18.515625 L 56.699219 18.515625 L 56.449219 16.984375 L 56.394531 16.984375 C 55.765625 18.132812 54.832031 18.71875 53.59375 18.71875 C 51.6875 18.710938 51.222656 17.398438 51.109375 16.0625 L 51.101562 15.96875 C 51.089844 15.765625 51.082031 15.5625 51.078125 15.363281 L 51.078125 6.0625 Z M 69.039062 6.0625 L 69.039062 15.199219 C 69.039062 15.746094 69.097656 16.144531 69.230469 16.382812 C 69.5 16.890625 70.203125 16.761719 70.582031 16.511719 C 70.800781 16.367188 70.980469 16.171875 71.097656 15.945312 L 71.097656 6.0625 L 74.011719 6.0625 L 74.011719 18.515625 L 71.726562 18.515625 L 71.476562 16.984375 L 71.421875 16.984375 C 70.792969 18.132812 69.859375 18.71875 68.621094 18.71875 C 66.714844 18.710938 66.25 17.398438 66.136719 16.0625 L 66.128906 15.96875 C 66.117188 15.765625 66.109375 15.5625 66.105469 15.363281 L 66.105469 6.0625 Z M 45.554688 5.824219 C 46.507812 5.824219 47.289062 6.007812 47.859375 6.390625 C 48.429688 6.773438 48.871094 7.355469 49.136719 8.160156 C 49.402344 8.960938 49.535156 10.035156 49.535156 11.367188 L 49.535156 13.171875 C 49.535156 14.503906 49.402344 15.5625 49.136719 16.363281 C 48.871094 17.167969 48.449219 17.75 47.859375 18.132812 C 47.269531 18.5 46.46875 18.699219 45.480469 18.699219 C 44.449219 18.71875 43.652344 18.515625 43.058594 18.152344 C 42.46875 17.769531 42.050781 17.183594 41.804688 16.382812 C 41.554688 15.582031 41.441406 14.523438 41.441406 13.191406 L 41.441406 11.386719 C 41.441406 10.054688 41.574219 8.960938 41.859375 8.160156 C 42.144531 7.335938 42.585938 6.753906 43.195312 6.390625 C 43.804688 6.023438 44.585938 5.824219 45.554688 5.824219 Z M 78.582031 0.828125 L 78.582031 7.390625 L 78.601562 7.390625 C 78.867188 6.917969 79.210938 6.535156 79.6875 6.242188 C 80.132812 5.957031 80.65625 5.804688 81.191406 5.804688 C 81.894531 5.804688 82.429688 5.988281 82.828125 6.335938 C 83.230469 6.699219 83.515625 7.265625 83.6875 8.050781 C 83.851562 8.808594 83.945312 9.859375 83.953125 11.183594 L 83.953125 13.28125 C 83.953125 15.125 83.707031 16.492188 83.246094 17.367188 C 82.773438 18.242188 82.046875 18.679688 81.058594 18.679688 C 80.503906 18.679688 80.011719 18.554688 79.554688 18.316406 C 79.148438 18.089844 78.8125 17.765625 78.582031 17.378906 L 78.542969 17.3125 L 78.488281 17.3125 L 78.183594 18.5 L 75.761719 18.5 L 75.761719 0.828125 Z M 66.925781 1.464844 L 66.925781 3.726562 L 64.03125 3.726562 L 64.03125 18.515625 L 61.171875 18.515625 L 61.171875 3.726562 L 58.257812 3.726562 L 58.257812 1.464844 Z M 35.519531 1.464844 L 35.519531 1.472656 C 35.546875 1.589844 35.933594 3.230469 36.355469 5.140625 L 36.390625 5.292969 C 36.40625 5.367188 36.421875 5.445312 36.441406 5.519531 L 36.472656 5.671875 C 36.480469 5.699219 36.484375 5.726562 36.492188 5.75 L 36.523438 5.90625 C 36.53125 5.929688 36.535156 5.957031 36.542969 5.984375 L 36.574219 6.136719 L 36.625 6.363281 C 36.910156 7.6875 37.183594 9.011719 37.347656 9.964844 L 37.421875 9.964844 C 37.578125 9.109375 37.804688 8.019531 38.050781 6.90625 L 38.113281 6.613281 C 38.144531 6.46875 38.175781 6.320312 38.207031 6.175781 L 38.257812 5.949219 C 38.726562 3.851562 39.1875 1.890625 39.273438 1.527344 L 39.28125 1.503906 C 39.285156 1.476562 39.289062 1.464844 39.289062 1.464844 L 42.203125 1.464844 L 38.832031 12.972656 L 38.832031 18.5 L 35.957031 18.5 L 35.957031 12.992188 L 35.9375 12.992188 L 32.605469 1.464844 Z M 45.5 7.757812 C 45.097656 7.757812 44.832031 7.957031 44.660156 8.378906 C 44.488281 8.796875 44.414062 9.433594 44.414062 10.328125 L 44.414062 14.210938 C 44.414062 15.125 44.488281 15.800781 44.640625 16.199219 C 44.792969 16.601562 45.078125 16.800781 45.5 16.800781 C 45.898438 16.800781 46.183594 16.601562 46.355469 16.199219 C 46.527344 15.800781 46.601562 15.125 46.601562 14.210938 L 46.601562 10.328125 C 46.601562 9.433594 46.527344 8.777344 46.355469 8.378906 C 46.183594 7.957031 45.898438 7.757812 45.5 7.757812 Z M 79.097656 8.121094 C 78.863281 8.328125 78.699219 8.582031 78.601562 8.898438 L 78.582031 8.960938 L 78.582031 16.035156 C 78.816406 16.417969 79.152344 16.675781 79.742188 16.691406 C 80.046875 16.691406 80.296875 16.582031 80.484375 16.363281 C 80.675781 16.144531 80.808594 15.78125 80.886719 15.269531 C 80.960938 14.78125 80.996094 14.105469 81 13.246094 L 81 11.515625 C 81 10.527344 80.960938 9.78125 80.90625 9.253906 C 80.828125 8.722656 80.734375 8.339844 80.5625 8.121094 C 80.230469 7.667969 79.515625 7.671875 79.097656 8.121094 Z M 89.171875 7.703125 C 88.847656 7.722656 88.617188 7.8125 88.484375 7.976562 C 88.332031 8.160156 88.238281 8.433594 88.179688 8.832031 C 88.125 9.226562 88.105469 10.601562 88.105469 10.65625 L 88.105469 11.550781 L 90.238281 11.550781 L 90.238281 10.761719 L 90.238281 10.777344 C 90.238281 11.050781 90.230469 10.617188 90.21875 10.082031 L 90.214844 10.007812 C 90.203125 9.539062 90.1875 9.011719 90.160156 8.832031 C 90.105469 8.414062 90.007812 8.121094 89.855469 7.957031 C 89.703125 7.792969 89.476562 7.703125 89.171875 7.703125 Z M 89.171875 7.703125 "/>
</g>
</svg>
